<svg width="49" height="25" viewBox="0 0 49 25" fill="none" xmlns="http://www.w3.org/2000/svg">
<rect x="0.5" y="1" width="48" height="23" stroke="#F2F2F2"/>
<path d="M15.5341 6.86364V18.5H13.7727V8.625H13.7045L10.9205 10.4432V8.76136L13.8239 6.86364H15.5341ZM18.9818 18.5V17.2273L22.9193 13.1477C23.3398 12.7045 23.6864 12.3163 23.9591 11.983C24.2356 11.6458 24.442 11.3258 24.5784 11.0227C24.7148 10.7197 24.783 10.3977 24.783 10.0568C24.783 9.67045 24.692 9.33712 24.5102 9.05682C24.3284 8.77273 24.0803 8.55492 23.7659 8.40341C23.4515 8.24811 23.0973 8.17045 22.7034 8.17045C22.2867 8.17045 21.9231 8.25568 21.6125 8.42614C21.3019 8.59659 21.0633 8.83712 20.8966 9.14773C20.7299 9.45833 20.6466 9.82197 20.6466 10.2386H18.9705C18.9705 9.5303 19.1333 8.91098 19.4591 8.38068C19.7848 7.85038 20.2318 7.43939 20.8 7.14773C21.3682 6.85227 22.014 6.70455 22.7375 6.70455C23.4686 6.70455 24.1125 6.85038 24.6693 7.14205C25.2299 7.42992 25.6674 7.82386 25.9818 8.32386C26.2962 8.82008 26.4534 9.38068 26.4534 10.0057C26.4534 10.4375 26.372 10.8598 26.2091 11.2727C26.05 11.6856 25.7716 12.1458 25.3739 12.6534C24.9761 13.1572 24.4231 13.7689 23.7148 14.4886L21.4023 16.9091V16.9943H26.6409V18.5H18.9818ZM32.5375 16.5455V8.86364H34.0659V16.5455H32.5375ZM29.4636 13.4659V11.9432H37.1455V13.4659H29.4636Z" fill="white"/>
</svg>
