<svg width="13" height="8" viewBox="0 0 13 8" fill="none" xmlns="http://www.w3.org/2000/svg">
<mask id="path-1-inside-1_201_339" fill="white">
<path d="M0 1.50051L6.5 7.5L13 1.50051L11.9168 0.5L6.5 5.5004L1.08321 0.5L0 1.50051Z"/>
</mask>
<path d="M0 1.50051L6.5 7.5L13 1.50051L11.9168 0.5L6.5 5.5004L1.08321 0.5L0 1.50051Z" fill="#F2F2F2"/>
<path d="M0 1.50051L-75.3144 -80.0393L-163.625 1.52935L-75.2857 83.0668L0 1.50051ZM6.5 7.5L-68.7857 89.0663L6.5 158.555L81.7857 89.0663L6.5 7.5ZM13 1.50051L88.2857 83.0668L176.625 1.52935L88.3144 -80.0393L13 1.50051ZM11.9168 0.5L87.2312 -81.0398L11.9381 -150.584L-63.3746 -81.061L11.9168 0.5ZM6.5 5.5004L-68.7914 87.0614L6.5 156.565L81.7914 87.0614L6.5 5.5004ZM1.08321 0.5L76.3746 -81.061L1.0619 -150.584L-74.2312 -81.0398L1.08321 0.5ZM-75.2857 83.0668L-68.7857 89.0663L81.7857 -74.0663L75.2857 -80.0658L-75.2857 83.0668ZM81.7857 89.0663L88.2857 83.0668L-62.2857 -80.0658L-68.7857 -74.0663L81.7857 89.0663ZM88.3144 -80.0393L87.2312 -81.0398L-63.3976 82.0398L-62.3144 83.0403L88.3144 -80.0393ZM-63.3746 -81.061L-68.7914 -76.0606L81.7914 87.0614L87.2082 82.061L-63.3746 -81.061ZM81.7914 -76.0606L76.3746 -81.061L-74.2082 82.061L-68.7914 87.0614L81.7914 -76.0606ZM-74.2312 -81.0398L-75.3144 -80.0393L75.3144 83.0403L76.3976 82.0398L-74.2312 -81.0398Z" fill="#F2F2F2" mask="url(#path-1-inside-1_201_339)"/>
</svg>
