<svg width="25" height="24" viewBox="0 0 25 24" fill="none" xmlns="http://www.w3.org/2000/svg">
<g clip-path="url(#clip0_204_679)">
<path d="M24.2105 0.796439L24.139 0.866362C24.2023 0.93102 24.2521 1.00755 24.2856 1.09154L24.2857 1.09158C24.5192 1.67539 24.3603 2.28518 24.1201 2.79366C23.872 3.3148 23.4718 3.86816 23.0026 4.43304C22.2997 5.27916 21.3603 6.24269 20.3657 7.26274L20.3635 7.26503C20.0347 7.6013 19.7015 7.94653 19.3685 8.29149L19.3681 8.29191C19.295 8.36863 19.2043 8.42647 19.1039 8.46047C19.0035 8.49445 18.8964 8.50362 18.7917 8.48718C18.7917 8.48717 18.7916 8.48716 18.7915 8.48715L16.8252 8.17369L16.526 8.12598L16.7381 8.34243L17.8316 9.45842C17.9583 9.58776 18.0293 9.76162 18.0293 9.94269C18.0293 10.1238 17.9583 10.2976 17.8316 10.427L17.8316 10.427L15.5546 12.752L15.5544 12.7518L15.5494 12.7576C13.2169 15.533 10.9866 17.2953 9.128 18.1949C8.19853 18.644 7.33478 18.8907 6.5832 18.92C6.08255 18.939 5.60347 18.8597 5.19435 18.6573L5.11757 18.6193L5.06825 18.6894C3.94122 20.2894 2.86071 21.9217 1.82805 23.5842L1.82764 23.5849C1.78194 23.6597 1.72169 23.7247 1.65044 23.7759L1.70879 23.8571L1.65044 23.7759C1.57919 23.8271 1.4984 23.8635 1.41284 23.8829L1.43497 23.9804L1.41284 23.8829C1.32728 23.9023 1.2387 23.9044 1.15233 23.889C1.06605 23.8735 0.983738 23.841 0.910246 23.7933C0.759907 23.6938 0.654295 23.5396 0.61589 23.3635C0.577454 23.1872 0.609375 23.0029 0.704852 22.8499L0.704958 22.8497C1.78177 21.1155 2.91017 19.4139 4.08865 17.7472L4.12401 17.6972L4.09554 17.643C4.06637 17.5874 4.04096 17.5283 4.01546 17.4683C3.86572 17.0935 3.79937 16.6509 3.79199 16.1849L3.79199 16.1847C3.77575 15.2489 3.9915 14.0805 4.42997 12.8172C5.30957 10.2843 7.127 7.2424 10.0379 4.72559C12.9474 2.2102 16.0829 0.912279 18.643 0.387422C19.9226 0.126433 21.0741 0.0539939 21.9931 0.126637L21.9945 0.126725C22.4102 0.154007 22.8216 0.228049 23.2209 0.347448C23.5582 0.456103 23.8945 0.617651 24.1392 0.866543L24.2105 0.796439ZM24.2105 0.796439C24.283 0.870523 24.3401 0.958205 24.3785 1.05444C24.6275 1.67694 24.455 2.31894 24.2105 2.83644C23.957 3.36894 23.5505 3.92994 23.0795 4.49694C22.3741 5.34614 21.4324 6.31198 20.4396 7.33025L24.2105 0.796439ZM6.5343 17.5553C7.05342 17.5366 7.73604 17.3586 8.55953 16.9605L8.55959 16.9604C10.205 16.1635 12.3021 14.5359 14.5581 11.8452L14.5583 11.8449C14.5696 11.8314 14.5814 11.8183 14.5937 11.8057C14.5937 11.8057 14.5937 11.8056 14.5937 11.8056L16.35 10.0119L16.4185 9.94189L16.3499 9.87193L14.5349 8.02093L14.4686 7.95327L14.3974 8.01587C11.287 10.7535 8.49979 13.9978 6.01895 17.3707L5.92356 17.5004L6.08209 17.5284C6.23195 17.5549 6.38369 17.5628 6.5343 17.5553ZM6.5343 17.5553C6.53453 17.5553 6.53475 17.5553 6.53498 17.5553L6.53 17.4554L6.53359 17.5554C6.53383 17.5554 6.53407 17.5554 6.5343 17.5553ZM6.0995 17.4299C6.1217 17.3998 6.14393 17.3696 6.16618 17.3394C6.14972 17.337 6.1333 17.3344 6.11692 17.3315L6.0995 17.4299ZM6.0995 17.4299L6.18006 17.4892C6.19062 17.4748 6.20118 17.4605 6.21175 17.4461C6.17421 17.4419 6.13677 17.4365 6.0995 17.4299ZM16.011 6.66277L16.1913 6.52127C18.1613 4.97533 20.2528 3.64203 22.4688 2.6093L22.8029 2.4536L22.5933 2.7568C22.4042 3.03031 22.2021 3.29457 21.9877 3.54866C21.9876 3.54875 21.9875 3.54885 21.9874 3.54894L21.911 3.48444C21.2501 4.28138 20.3746 5.17967 19.3989 6.1808L16.011 6.66277ZM16.011 6.66277L16.2373 6.6987L18.6088 7.0752L18.66 7.08333L18.6962 7.04619L19.4611 6.26024L19.4612 6.26019L16.011 6.66277ZM21.3163 1.65407L21.2709 1.46445C20.4758 1.47342 19.6835 1.56105 18.9056 1.72604C16.5442 2.20925 13.6199 3.41484 10.8956 5.76826L10.8956 5.7683C8.17401 8.12198 6.48893 10.9571 5.68404 13.2751L5.684 13.2753C5.3081 14.3622 5.13422 15.306 5.12351 16.0154L5.11886 16.3242L5.30363 16.0768C9.64336 10.2655 14.9555 4.80008 21.3163 1.65407Z" fill="white" stroke="white" stroke-width="0.2"/>
</g>
<defs>
<clipPath id="clip0_204_679">
<rect width="24" height="24" fill="white" transform="translate(0.5)"/>
</clipPath>
</defs>
</svg>
