<svg width="16" height="21" viewBox="0 0 16 21" fill="none" xmlns="http://www.w3.org/2000/svg">
<path d="M8.57071 0.929289L8.54142 0.9H8.5H3.5C2.67783 0.9 1.88933 1.22661 1.30797 1.80797C0.726606 2.38933 0.4 3.17783 0.4 4V17C0.4 17.8222 0.726606 18.6107 1.30797 19.192C1.88933 19.7734 2.67783 20.1 3.5 20.1H12.5C13.3222 20.1 14.1107 19.7734 14.692 19.192C15.2734 18.6107 15.6 17.8222 15.6 17V8V7.95858L15.5707 7.92929L8.57071 0.929289ZM8.30797 8.19203C8.88933 8.77339 9.67783 9.1 10.5 9.1H14.4V17C14.4 17.5039 14.1998 17.9872 13.8435 18.3435C13.4872 18.6998 13.0039 18.9 12.5 18.9H3.5C2.99609 18.9 2.51282 18.6998 2.1565 18.3435C1.80018 17.9872 1.6 17.5039 1.6 17V4C1.6 3.49609 1.80018 3.01282 2.1565 2.6565C2.51282 2.30018 2.99609 2.1 3.5 2.1H7.4V6C7.4 6.82217 7.72661 7.61067 8.30797 8.19203ZM9.1565 7.3435C8.80018 6.98718 8.6 6.50391 8.6 6V2.65142L13.8486 7.9H10.5C9.99609 7.9 9.51282 7.69982 9.1565 7.3435Z" fill="white" stroke="white" stroke-width="0.2"/>
</svg>
