<svg width="25" height="24" viewBox="0 0 25 24" fill="none" xmlns="http://www.w3.org/2000/svg">
<path d="M12.5 6L13.934 8.77725L17 9.22275L14.75 11.25L15.5 14.25L12.5 12.5625L9.5 14.25L10.25 11.25L8 9.22275L11.15 8.77725L12.5 6Z" fill="white"/>
<path d="M13.802 22.5L12.5 21.75L15.5 16.5H20C20.1971 16.5003 20.3923 16.4617 20.5744 16.3864C20.7565 16.3111 20.922 16.2007 21.0613 16.0613C21.2007 15.922 21.3111 15.7565 21.3864 15.5744C21.4617 15.3923 21.5003 15.1971 21.5 15V6C21.5003 5.80293 21.4617 5.60775 21.3864 5.42562C21.3111 5.2435 21.2007 5.07803 21.0613 4.93868C20.922 4.79933 20.7565 4.68885 20.5744 4.61358C20.3923 4.5383 20.1971 4.4997 20 4.5H5C4.80293 4.4997 4.60775 4.5383 4.42562 4.61358C4.2435 4.68885 4.07803 4.79933 3.93868 4.93868C3.79933 5.07803 3.68885 5.2435 3.61358 5.42562C3.5383 5.60775 3.4997 5.80293 3.5 6V15C3.4997 15.1971 3.5383 15.3923 3.61358 15.5744C3.68885 15.7565 3.79933 15.922 3.93868 16.0613C4.07803 16.2007 4.2435 16.3111 4.42562 16.3864C4.60775 16.4617 4.80293 16.5003 5 16.5H11.75V18H5C4.20435 18 3.44129 17.6839 2.87868 17.1213C2.31607 16.5587 2 15.7956 2 15V6C1.9999 5.60601 2.07743 5.21585 2.22816 4.85183C2.37889 4.48781 2.59986 4.15706 2.87846 3.87846C3.15706 3.59986 3.48781 3.37889 3.85183 3.22816C4.21585 3.07743 4.60601 2.9999 5 3H20C20.394 2.9999 20.7841 3.07743 21.1482 3.22816C21.5122 3.37889 21.8429 3.59986 22.1215 3.87846C22.4001 4.15706 22.6211 4.48781 22.7718 4.85183C22.9226 5.21585 23.0001 5.60601 23 6V15C23 15.7956 22.6839 16.5587 22.1213 17.1213C21.5587 17.6839 20.7956 18 20 18H16.3738L13.802 22.5Z" fill="white"/>
</svg>
