<svg width="25" height="24" viewBox="0 0 25 24" fill="none" xmlns="http://www.w3.org/2000/svg">
<path d="M13.5 7.5C13.5 7.76522 13.3946 8.01957 13.2071 8.20711C13.0196 8.39464 12.7652 8.5 12.5 8.5C12.2348 8.5 11.9804 8.39464 11.7929 8.20711C11.6054 8.01957 11.5 7.76522 11.5 7.5C11.5 7.23478 11.6054 6.98043 11.7929 6.79289C11.9804 6.60536 12.2348 6.5 12.5 6.5C12.7652 6.5 13.0196 6.60536 13.2071 6.79289C13.3946 6.98043 13.5 7.23478 13.5 7.5ZM10.5 11.25C10.5 11.0511 10.579 10.8603 10.7197 10.7197C10.8603 10.579 11.0511 10.5 11.25 10.5H12.75C12.9489 10.5 13.1397 10.579 13.2803 10.7197C13.421 10.8603 13.5 11.0511 13.5 11.25V15.5H14.25C14.4489 15.5 14.6397 15.579 14.7803 15.7197C14.921 15.8603 15 16.0511 15 16.25C15 16.4489 14.921 16.6397 14.7803 16.7803C14.6397 16.921 14.4489 17 14.25 17H11.25C11.0511 17 10.8603 16.921 10.7197 16.7803C10.579 16.6397 10.5 16.4489 10.5 16.25C10.5 16.0511 10.579 15.8603 10.7197 15.7197C10.8603 15.579 11.0511 15.5 11.25 15.5H12V12H11.25C11.0511 12 10.8603 11.921 10.7197 11.7803C10.579 11.6397 10.5 11.4489 10.5 11.25Z" fill="white"/>
<path d="M12.5 1C18.575 1 23.5 5.925 23.5 12C23.5 18.075 18.575 23 12.5 23C6.425 23 1.5 18.075 1.5 12C1.5 5.925 6.425 1 12.5 1ZM3 12C3 14.5196 4.00089 16.9359 5.78249 18.7175C7.56408 20.4991 9.98044 21.5 12.5 21.5C15.0196 21.5 17.4359 20.4991 19.2175 18.7175C20.9991 16.9359 22 14.5196 22 12C22 9.48044 20.9991 7.06408 19.2175 5.28249C17.4359 3.50089 15.0196 2.5 12.5 2.5C9.98044 2.5 7.56408 3.50089 5.78249 5.28249C4.00089 7.06408 3 9.48044 3 12Z" fill="white"/>
</svg>
