<svg width="18" height="19" viewBox="0 0 18 19" fill="none" xmlns="http://www.w3.org/2000/svg">
<path d="M17.0004 17.5002L12.9504 13.4502M12.9504 13.4502C13.6004 12.8001 14.116 12.0284 14.4678 11.1791C14.8196 10.3298 15.0007 9.41948 15.0007 8.50018C15.0007 7.58088 14.8196 6.67058 14.4678 5.82126C14.116 4.97193 13.6004 4.20022 12.9504 3.55018C12.3003 2.90013 11.5286 2.38449 10.6793 2.03269C9.82995 1.68089 8.91966 1.49982 8.00036 1.49982C7.08106 1.49982 6.17076 1.68089 5.32144 2.03269C4.47211 2.38449 3.7004 2.90013 3.05036 3.55018C1.73754 4.863 1 6.64357 1 8.50018C1 10.3568 1.73754 12.1374 3.05036 13.4502C4.36318 14.763 6.14375 15.5005 8.00036 15.5005C9.85697 15.5005 11.6375 14.763 12.9504 13.4502Z" stroke="#A9A9A9" stroke-width="2" stroke-linecap="round" stroke-linejoin="round"/>
</svg>
