<svg width="24" height="25" viewBox="0 0 24 25" fill="none" xmlns="http://www.w3.org/2000/svg">
<path fill-rule="evenodd" clip-rule="evenodd" d="M18.483 20.2901V20.2881L18.501 20.2451L21.5 5.12506V5.07706C21.5 4.70006 21.36 4.37106 21.058 4.17406C20.793 4.00106 20.488 3.98906 20.274 4.00506C20.0748 4.02307 19.8782 4.06332 19.688 4.12506C19.6068 4.15121 19.5268 4.18057 19.448 4.21306L19.435 4.21806L2.71497 10.7771L2.70997 10.7791C2.65914 10.7964 2.60938 10.8168 2.56097 10.8401C2.44206 10.8935 2.32797 10.9571 2.21997 11.0301C2.00497 11.1781 1.59597 11.5261 1.66497 12.0781C1.72197 12.5361 2.03697 12.8261 2.24997 12.9771C2.3757 13.0652 2.51087 13.139 2.65297 13.1971L2.68497 13.2111L2.69497 13.2141L2.70197 13.2171L5.62797 14.2021C5.61797 14.3851 5.63597 14.5721 5.68497 14.7571L7.14997 20.3161C7.23 20.6191 7.40294 20.8894 7.64449 21.0891C7.88605 21.2888 8.18408 21.4078 8.49675 21.4294C8.80941 21.4511 9.12099 21.3742 9.38774 21.2097C9.65448 21.0451 9.86299 20.8012 9.98397 20.5121L12.272 18.0661L16.201 21.0781L16.257 21.1021C16.614 21.2581 16.947 21.3071 17.252 21.2661C17.557 21.2241 17.799 21.0961 17.981 20.9511C18.1915 20.7804 18.3593 20.563 18.471 20.3161L18.479 20.2991L18.482 20.2931L18.483 20.2901ZM7.13497 14.3751C7.11875 14.3134 7.1226 14.2481 7.14598 14.1888C7.16936 14.1294 7.21104 14.0791 7.26497 14.0451L17.186 7.74506C17.186 7.74506 17.77 7.39006 17.749 7.74506C17.749 7.74506 17.853 7.80706 17.54 8.09806C17.244 8.37506 10.469 14.9161 9.78297 15.5781C9.74483 15.6151 9.7181 15.6623 9.70597 15.7141L8.59997 19.9341L7.13497 14.3741V14.3751Z" fill="#F2F2F2"/>
</svg>
